<svg width="121" height="176" viewBox="0 0 121 176" fill="none" xmlns="http://www.w3.org/2000/svg">
<path d="M116.389 92.8728C114.476 96.7951 110.289 99.3829 105.592 99.5454H105.464C103.156 99.7512 101.297 101.366 100.955 103.462C99.0389 113.753 90.4865 121.956 79.3283 124.205C78.0614 124.458 76.9026 125.042 75.9938 125.887C75.1183 126.731 74.1499 127.489 73.1039 128.15C65.2898 132.6 55.3853 132.6 47.5712 128.15C46.5252 127.489 45.5568 126.731 44.6813 125.887C43.7725 125.042 42.6137 124.458 41.3468 124.205C30.1887 121.956 21.6362 113.753 19.7201 103.462C19.3785 101.366 17.5193 99.7512 15.2106 99.5454H15.0836C10.3865 99.3829 6.19905 96.7951 4.28616 92.8728C2.23108 88.6764 3.03713 83.7712 6.35038 80.311C8.75442 77.802 12.2275 76.3637 15.8775 76.3655H19.0532V85.0688C19.0532 89.8755 23.3187 93.7722 28.5804 93.7722H44.459C49.7207 93.7722 53.9861 89.8755 53.9861 85.0688V76.3655C53.9757 73.165 51.1381 70.5728 47.6347 70.5633H19.0532V63.8327C19.0017 55.5451 24.0067 47.9211 32.0338 44.0594C40.0608 40.1977 49.774 40.7411 57.2254 45.4687H57.2571C59.1143 46.6292 61.5608 46.6292 63.418 45.4687L63.7356 45.2946C71.6759 40.4443 81.9913 40.2967 90.094 44.9174C97.3981 49.2418 101.753 56.6947 101.622 64.645V70.5633H73.0404C69.5326 70.5633 66.689 73.161 66.689 76.3655V85.0688C66.689 89.8755 70.9544 93.7722 76.2161 93.7722H92.0947C97.3564 93.7722 101.622 89.8755 101.622 85.0688V76.3655H104.798C108.448 76.3637 111.921 77.802 114.325 80.311C117.638 83.7712 118.444 88.6764 116.389 92.8728Z" fill="#FFE0B2"/>
<path d="M92.0949 64.6444V70.5627H101.622V64.6444C101.87 57.8375 98.7002 51.3 93.0145 46.8946C87.3289 42.4891 79.7513 40.6986 72.4404 42.0331C84.1347 44.208 92.4258 53.7464 92.0949 64.6444Z" fill="#DFC49C"/>
<path d="M114.325 80.3111C110.235 76.0754 105.614 76.3655 101.623 76.3655V77.9989C112.792 83.9781 108.152 99.5454 95.9381 99.5454C93.6294 99.7513 91.7702 101.366 91.4286 103.462C89.5125 113.753 80.96 121.956 69.8019 124.205C68.535 124.458 67.3762 125.042 66.4674 125.888C63.5292 128.617 59.7123 130.416 55.5747 131.022C61.6044 132.189 67.8946 131.159 73.1047 128.15C76.4582 125.986 76.1248 124.959 79.3291 124.205C90.4872 121.956 99.0396 113.753 100.956 103.462C101.297 101.366 103.157 99.7513 105.465 99.5454C110.343 99.3458 114.658 96.5984 116.552 92.4873C118.446 88.3763 117.579 83.6365 114.325 80.3111Z" fill="#DFC49C"/>
<path d="M53.9866 76.3657V85.069C53.9866 89.8758 49.7211 93.7724 44.4594 93.7724H28.5809C23.3192 93.7724 19.0537 89.8758 19.0537 85.069V70.5635H47.6352C51.1386 70.573 53.9761 73.1652 53.9866 76.3657Z" fill="#02A9F4"/>
<path d="M47.635 70.5635H38.1078C41.6113 70.573 44.4488 73.1652 44.4593 76.3657V85.069C44.4593 89.8758 40.1938 93.7724 34.9321 93.7724H44.4593C49.721 93.7724 53.9864 89.8758 53.9864 85.069V76.3657C53.976 73.1652 51.1385 70.573 47.635 70.5635Z" fill="#0377BC"/>
<path d="M101.622 70.5635V85.069C101.622 89.8758 97.3569 93.7724 92.0952 93.7724H76.2166C70.9549 93.7724 66.6895 89.8758 66.6895 85.069V76.3657C66.6895 73.1612 69.5331 70.5635 73.0409 70.5635H101.622Z" fill="#02A9F4"/>
<path d="M92.095 70.5635V85.069C92.095 89.8758 87.8296 93.7724 82.5679 93.7724H92.095C97.3567 93.7724 101.622 89.8758 101.622 85.069V70.5635H92.095Z" fill="#0377BC"/>
<path d="M76.2161 134.387C76.2161 134.387 76.2161 138.275 75.6763 143.758C70.7464 145.319 65.5543 146.075 60.3376 145.992C55.1208 146.075 49.9288 145.319 44.9989 143.758C44.459 138.275 44.459 134.387 44.459 134.387C45.8098 132.451 46.8574 130.351 47.5712 128.15C55.3853 132.599 65.2898 132.599 73.1039 128.15C73.8177 130.351 74.8653 132.451 76.2161 134.387Z" fill="#DFC49C"/>
<path d="M75.6764 143.758C74.7872 152.404 72.5325 164.994 66.6892 172.102H53.9863C48.143 164.994 45.8882 152.404 44.999 143.758C49.9289 145.319 55.121 146.075 60.3377 145.992C65.5545 146.075 70.7465 145.319 75.6764 143.758Z" fill="#02A9F4"/>
<path d="M65.9207 145.702C64.9013 154.208 62.5862 165.493 57.1621 172.102H66.6893C72.5326 164.994 74.7873 152.404 75.6765 143.758C72.5228 144.765 69.2469 145.418 65.9207 145.702Z" fill="#0377BC"/>
<path d="M53.9868 172.102H12.7025C9.19905 172.093 6.36154 169.5 6.35107 166.3V157.597C6.35107 144.779 17.7256 134.388 31.7568 134.388H44.4597C44.4597 134.388 44.4597 160.498 53.9868 172.102Z" fill="#FF5959"/>
<path d="M114.325 157.597V166.3C114.315 169.5 111.477 172.093 107.974 172.102H66.6895C76.2166 160.498 76.2166 134.388 76.2166 134.388H88.9195C102.951 134.388 114.325 144.779 114.325 157.597Z" fill="#FF5959"/>
<path d="M88.9192 134.388H79.3921C93.4233 134.388 104.798 144.779 104.798 157.597V166.3C104.787 169.5 101.95 172.093 98.4464 172.102H107.974C111.477 172.093 114.315 169.5 114.325 166.3V157.597C114.325 144.779 102.95 134.388 88.9192 134.388Z" fill="#C24141"/>
<path d="M114.325 64.761V80.311C111.921 77.802 108.448 76.3637 104.798 76.3655H101.623V64.645C101.754 56.6947 97.3988 49.2418 90.0947 44.9174C81.8601 40.285 71.4156 40.5008 63.4187 45.4687C61.5616 46.6292 59.115 46.6292 57.2578 45.4687H57.2261C54.9474 44.019 52.4119 42.9394 49.7314 42.2774C42.4058 40.5063 34.5953 41.9412 28.5887 46.1617C22.5822 50.3821 19.0598 56.9102 19.0539 63.8327V76.3655H15.8782C12.2282 76.3637 8.75512 77.802 6.35107 80.311V64.761C6.35107 39.1252 29.1001 18.3433 57.1625 18.3433H63.514C76.99 18.3433 89.9141 23.2337 99.4431 31.9387C108.972 40.6437 114.325 52.4503 114.325 64.761Z" fill="#9E9E9E"/>
<path d="M88.761 24.4646C78.8686 19.9418 73.3937 17.8907 55.5747 18.3897C83.0099 19.1429 104.818 39.6869 104.798 64.7611V76.3655C108.448 76.3637 111.921 77.802 114.326 80.311L114.325 64.7611C114.338 48.111 104.582 32.7319 88.761 24.4646Z" fill="#707070"/>
<path d="M88.1889 24.1746C80.6433 20.339 72.1486 18.3315 63.5136 18.3433H57.1621C48.5271 18.3315 40.0324 20.339 32.4868 24.1746C35.4275 12.283 46.9927 3.83838 60.3379 3.83838C73.683 3.83838 85.2482 12.283 88.1889 24.1746Z" fill="#707070"/>
<path d="M1.36792 94.001C3.79265 98.9596 9.08345 102.235 15.0235 102.455C15.8632 102.599 16.5005 103.228 16.5923 104.004C18.7332 115.386 28.1754 124.465 40.5086 127.001C41.196 127.127 41.8335 127.419 42.3537 127.848C42.8162 128.299 43.306 128.725 43.8209 129.125C43.4766 129.934 43.0778 130.722 42.6268 131.486H31.7564C15.9792 131.504 3.19415 143.183 3.1749 157.596V166.3C3.1749 171.106 7.44035 175.003 12.7021 175.003H107.974C113.235 175.003 117.501 171.106 117.501 166.3V157.596C117.481 143.183 104.696 131.504 88.9193 131.486H78.0361C77.5851 130.722 77.1863 129.934 76.842 129.125C77.3569 128.725 77.8468 128.299 78.3092 127.848C78.8302 127.419 79.4689 127.126 80.1574 127.001C92.4903 124.464 101.931 115.383 104.071 104.001C104.178 103.19 104.876 102.55 105.763 102.449C111.665 102.203 116.908 98.9324 119.308 94.001C121.643 89.1764 120.953 83.5766 117.501 79.3475V64.7607C117.462 47.3035 107.358 31.1564 90.9104 22.2682C87.153 9.67122 74.6299 0.931152 60.3378 0.931152C46.0457 0.931152 33.5226 9.67122 29.7652 22.2682C13.3164 31.1551 3.21165 47.3031 3.1749 64.7607V79.3475C-0.27759 83.5764 -0.968162 89.1765 1.36792 94.001ZM9.52634 166.3V157.596C9.54034 146.386 19.4849 137.301 31.7564 137.289H41.3565C41.617 143.598 42.8428 158.731 48.4225 169.201H31.7564V154.695C31.7564 153.093 30.3345 151.794 28.5806 151.794C26.8267 151.794 25.4049 153.093 25.4049 154.695V169.201H12.7021C10.9482 169.201 9.52634 167.902 9.52634 166.3ZM48.6925 147.733C56.3646 149.272 64.311 149.272 71.9832 147.733C71.2752 155.25 68.8911 162.556 64.9775 169.201H55.6981C51.7845 162.556 49.4004 155.25 48.6925 147.733ZM111.149 157.596V166.3C111.149 167.902 109.727 169.201 107.974 169.201H95.2707V154.695C95.2707 153.093 93.8489 151.794 92.095 151.794C90.3411 151.794 88.9193 153.093 88.9193 154.695V169.201H72.2531C77.8328 158.731 79.0587 143.598 79.3191 137.289H88.9193C101.191 137.301 111.135 146.386 111.149 157.596ZM73.0407 135.089C73.0184 136.169 72.939 138.501 72.6818 141.565C64.6117 143.599 56.0893 143.599 48.0192 141.565C47.762 138.501 47.6826 136.169 47.6603 135.089C48.2609 134.172 48.8059 133.225 49.2927 132.252C56.3348 135.101 64.3662 135.101 71.4084 132.252C71.8951 133.225 72.4401 134.172 73.0407 135.089ZM113.468 91.7556C111.99 94.68 108.824 96.5857 105.3 96.673C101.523 96.9352 98.4339 99.5266 97.8271 102.942C96.1148 112.121 88.4694 119.43 78.5093 121.408C76.6583 121.8 74.9702 122.671 73.6472 123.917C70.087 127.057 65.2836 128.742 60.3378 128.585C55.3902 128.739 50.5865 127.05 47.0284 123.906C45.7067 122.66 44.0195 121.79 42.1695 121.399C32.2143 119.415 24.5753 112.107 22.8643 102.931C22.243 99.4873 19.1083 96.888 15.2966 96.6555C11.8122 96.547 8.69366 94.6504 7.23982 91.7556C5.6341 88.5856 6.22684 84.8487 8.75146 82.2254C10.5531 80.3519 13.148 79.2744 15.8778 79.2663V85.0685C15.8778 91.4775 21.565 96.673 28.5806 96.673H44.4592C51.4748 96.673 57.1621 91.4775 57.1621 85.0685V79.2663H63.5135V85.0685C63.5135 91.4775 69.2008 96.673 76.2164 96.673H92.095C99.1106 96.673 104.798 91.4775 104.798 85.0685V79.2663C107.53 79.2705 110.129 80.346 111.934 82.2196C114.462 84.8432 115.058 88.582 113.455 91.7556H113.468ZM69.865 76.3855V76.3652C69.865 74.7629 71.2868 73.4641 73.0407 73.4641H98.4464V85.0685C98.4464 88.273 95.6028 90.8707 92.095 90.8707H76.2164C72.7086 90.8707 69.865 88.273 69.865 85.0685V76.3855ZM98.4464 67.6618H73.0407C69.0177 67.6771 65.4388 69.9991 64.0979 73.4641H56.5778C55.2368 69.9991 51.6579 67.6771 47.6349 67.6618H22.2292V63.8324C22.2142 58.69 24.4521 53.756 28.4441 50.1304C35.6457 43.4369 47.0941 42.4926 55.4917 47.8995C58.4295 49.6838 62.2525 49.6838 65.1903 47.8995L65.5079 47.7109C72.4131 43.4711 81.4052 43.3483 88.4461 47.3976C94.7992 51.1933 98.5751 57.7022 98.4464 64.636V67.6618ZM22.2292 76.3652V73.4641H47.6349C49.3888 73.4641 50.8107 74.7629 50.8107 76.3652V85.0685C50.8107 88.273 47.967 90.8707 44.4592 90.8707H28.5806C25.0728 90.8707 22.2292 88.273 22.2292 85.0685V76.3652ZM60.3378 6.7385C69.4985 6.78558 77.9311 11.308 82.4408 18.5924C76.3882 16.5184 69.9779 15.4514 63.5135 15.4418H57.1621C50.6977 15.4514 44.2874 16.5184 38.2348 18.5924C42.7441 11.3075 51.1769 6.78498 60.3378 6.7385ZM33.4935 26.9825C40.702 23.2207 48.8603 21.2427 57.1621 21.2441H63.5135C76.1507 21.234 88.2734 25.8156 97.2092 33.9787C106.145 42.1419 111.16 53.2163 111.149 64.7607V74.6883C109.147 73.8851 106.985 73.4683 104.798 73.4641V64.636C104.92 55.6898 100.002 47.3137 91.7774 42.457C82.6275 37.1978 70.9429 37.3638 61.9765 42.8805L61.6748 43.0633C60.8647 43.5548 59.811 43.5548 59.0008 43.0633C50.5654 37.7872 39.6257 37.211 30.5824 41.5665C21.5391 45.922 15.8785 54.4932 15.8778 63.8324V73.4641C13.6905 73.4674 11.5278 73.8853 9.52634 74.6912V64.7607C9.55595 49.1613 18.6918 34.7609 33.4935 26.9825Z" fill="black"/>
</svg>
