<svg id="Capa_1" enable-background="new 0 0 512.289 512.289" height="512" viewBox="0 0 512.289 512.289" width="512" xmlns="http://www.w3.org/2000/svg"><g><g><path d="m318.438 502.311c-10.683 0-21.576-2.464-32.234-4.876-10.086-2.281-20.515-4.641-30.059-4.641s-19.973 2.359-30.059 4.641c-16.354 3.7-33.264 7.525-49.111 2.38-16.563-5.377-28.156-18.709-39.367-31.602-6.857-7.885-13.333-15.333-20.567-20.597-7.372-5.365-16.551-9.289-26.269-13.442-15.615-6.675-31.763-13.578-41.86-27.453-9.994-13.731-11.594-31.156-13.142-48.006-.973-10.597-1.892-20.605-4.754-29.42-2.693-8.296-7.703-16.626-13.006-25.445-8.855-14.725-18.01-29.951-18.01-47.705s9.155-32.98 18.01-47.704c5.303-8.818 10.313-17.148 13.006-25.445 2.862-8.814 3.781-18.823 4.754-29.419 1.548-16.851 3.147-34.275 13.142-48.007 10.098-13.875 26.245-20.777 41.86-27.452 9.718-4.154 18.896-8.078 26.269-13.442 7.234-5.265 13.711-12.712 20.567-20.598 11.212-12.893 22.805-26.224 39.366-31.602 15.848-5.145 32.759-1.32 49.112 2.38 10.086 2.281 20.515 4.641 30.059 4.641s19.973-2.359 30.058-4.641c16.353-3.7 33.262-7.526 49.112-2.38 16.563 5.378 28.155 18.71 39.367 31.603 6.856 7.885 13.333 15.332 20.566 20.597 7.372 5.365 16.551 9.289 26.269 13.442 15.616 6.675 31.763 13.578 41.861 27.452 5.428 7.459 8.908 16.716 10.954 29.133.673 4.087-2.094 7.946-6.181 8.62-4.098.672-7.946-2.095-8.62-6.181-1.651-10.022-4.283-17.25-8.282-22.745-7.665-10.533-21.248-16.339-35.628-22.486-10.057-4.299-20.456-8.744-29.199-15.107-8.609-6.266-15.955-14.713-23.059-22.882-10.324-11.872-20.076-23.086-32.682-27.179-11.926-3.873-26.13-.659-41.17 2.744-10.889 2.463-22.148 5.01-33.367 5.01-11.22 0-22.479-2.547-33.368-5.01-15.039-3.403-29.246-6.614-41.17-2.744-12.605 4.093-22.356 15.307-32.68 27.178-7.104 8.169-14.45 16.617-23.061 22.883-8.743 6.363-19.143 10.808-29.199 15.107-14.38 6.147-27.962 11.953-35.627 22.486-7.563 10.392-8.908 25.042-10.333 40.552-1.006 10.95-2.045 22.273-5.424 32.68-3.224 9.927-8.915 19.391-14.419 28.543-8.157 13.566-15.863 26.381-15.863 39.973s7.706 26.407 15.864 39.974c5.504 9.153 11.195 18.617 14.419 28.543 3.379 10.407 4.418 21.73 5.424 32.681 1.425 15.51 2.77 30.161 10.332 40.551 7.666 10.534 21.249 16.34 35.629 22.487 10.057 4.299 20.455 8.744 29.198 15.107 8.61 6.266 15.956 14.713 23.06 22.882 10.324 11.872 20.075 23.086 32.682 27.179 11.923 3.872 26.13.66 41.169-2.743 10.889-2.463 22.148-5.011 33.368-5.011s22.479 2.547 33.368 5.011c15.038 3.402 29.244 6.616 41.169 2.743 12.606-4.093 22.358-15.307 32.682-27.179 7.104-8.169 14.449-16.616 23.059-22.881 8.743-6.363 19.143-10.809 29.199-15.108 14.38-6.147 27.963-11.953 35.628-22.486 7.563-10.391 8.907-25.04 10.332-40.55 1.006-10.951 2.046-22.275 5.425-32.683 3.224-9.927 8.915-19.392 14.419-28.545 8.158-13.566 15.864-26.38 15.864-39.972s-7.706-26.406-15.865-39.974c-5.504-9.152-11.195-18.617-14.419-28.543-1.507-4.644-2.68-9.884-3.585-16.019-.604-4.098 2.228-7.91 6.325-8.514 4.103-.603 7.91 2.228 8.515 6.326.781 5.297 1.767 9.737 3.013 13.575 2.693 8.297 7.703 16.627 13.007 25.446 8.854 14.724 18.01 29.949 18.01 47.704 0 17.754-9.155 32.979-18.01 47.702-5.303 8.819-10.313 17.149-13.006 25.447-2.862 8.815-3.782 18.825-4.755 29.422-1.548 16.85-3.147 34.273-13.141 48.004-10.099 13.875-26.245 20.777-41.86 27.453-9.718 4.154-18.897 8.078-26.27 13.443-7.233 5.264-13.709 12.711-20.565 20.596-11.212 12.893-22.806 26.226-39.368 31.603-5.521 1.791-11.17 2.495-16.878 2.495z"/></g><g><path d="m256.145 458.697c-43.967 0-85.787-13.85-120.938-40.053-3.321-2.476-4.006-7.174-1.531-10.496 2.475-3.321 7.175-4.008 10.496-1.531 32.542 24.257 71.262 37.079 111.974 37.079 103.416 0 187.552-84.135 187.552-187.552s-84.137-187.551-187.553-187.551-187.552 84.135-187.552 187.552c0 47.81 17.993 93.343 50.664 128.21 2.832 3.022 2.678 7.769-.345 10.601-3.022 2.833-7.77 2.677-10.601-.345-35.286-37.657-54.719-86.833-54.719-138.466 0-111.688 90.864-202.552 202.552-202.552s202.552 90.864 202.552 202.552-90.864 202.552-202.551 202.552z"/></g><g><path d="m349.176 270.305c10.688 0 21.812-1.652 32.843-5.009l.335-.104c7.241-2.28 12.597-8.433 13.976-16.057 1.388-7.666-1.491-15.349-7.513-20.052-8.269-6.458-35.109-19.996-52.482-15.16-6.538 1.819-11.227 6.006-13.558 12.109-1.479 3.869.46 8.205 4.329 9.683 3.87 1.479 8.204-.46 9.683-4.329.448-1.173 1.191-2.35 3.567-3.011 9.879-2.75 31.651 6.613 39.228 12.53 2.433 1.9 2.136 4.736 1.986 5.56-.188 1.036-.926 3.54-3.71 4.417l-.232.072c-24.651 7.502-50.46 5.027-67.351-6.458-12.945-8.803-20.222-22.037-21.625-39.334-.913-11.234.756-43.594.9-48.34.127-4.14-3.127-7.599-7.268-7.725-4.143-.133-7.599 3.128-7.725 7.268-.141 4.588-1.388 28.814-1.377 36.452 0 .013-.002.025-.002.038-.598 46.109-23.126 57-36.498 59.388-11.536 2.052-20.985 1.39-28.079-1.971-3.742-1.771-8.216-.176-9.989 3.568-1.772 3.743-.176 8.215 3.567 9.989 6.429 3.045 13.906 4.571 22.342 4.571 4.646 0 9.582-.463 14.792-1.39 19.248-3.437 33.434-15.439 41.426-34.256 4.798 9.719 11.884 17.879 21.101 24.147 13.021 8.853 29.584 13.405 47.334 13.404z"/><path d="m154.687 262.629c20.858.447 39.133-16.594 39.995-37.502.021-.52.032-73.314.032-73.314 0-4.142-3.357-7.5-7.5-7.5s-7.5 3.358-7.5 7.5v71.752c0 21.153-26.339 31.741-41.471 17.563-4.829-4.524-7.627-10.945-7.626-17.564 0-3.83.819-13.12 8.424-16.651 3.757-1.745 5.388-6.205 3.643-9.961-1.744-3.756-6.202-5.386-9.961-3.643-10.712 4.975-17.106 16.286-17.105 30.256 0 1.944.143 3.888.431 5.81 2.886 19.282 19.7 32.848 38.638 33.254z"/><path d="m215.787 177.396c.837.325 20.493 8.206 19.726 30.366-.144 4.14 3.096 7.612 7.235 7.755.089.003.177.004.265.004 4.021 0 7.351-3.189 7.49-7.24.918-26.479-18.842-40.961-29.418-44.919-3.867-1.447-8.147.509-9.616 4.362-1.469 3.856.472 8.181 4.318 9.672z"/><path d="m215.467 288.701c-.026-.07-.054-.139-.082-.208-1.354-3.289-4.526-5.414-8.083-5.414-.003 0-.006 0-.009 0-3.561.004-6.733 2.135-8.082 5.43-.023.058-.047.115-.068.173l-20.575 54.023c-1.475 3.871.469 8.204 4.34 9.678.878.335 1.78.493 2.668.493 3.021 0 5.87-1.84 7.01-4.833l3.285-8.624h22.705l3.246 8.603c1.462 3.875 5.79 5.833 9.665 4.369 3.875-1.462 5.831-5.79 4.368-9.665zm-13.884 35.719 5.692-14.945 5.64 14.945z"/><path d="m331.549 288.701c-.026-.07-.054-.139-.082-.208-1.354-3.289-4.526-5.414-8.083-5.414-.003 0-.006 0-.009 0-3.561.004-6.733 2.135-8.082 5.43-.023.058-.047.115-.068.173l-20.575 54.023c-1.475 3.871.469 8.204 4.34 9.678.878.335 1.78.493 2.668.493 3.021 0 5.87-1.84 7.01-4.833l3.285-8.624h22.705l3.246 8.603c1.462 3.875 5.791 5.833 9.665 4.369 3.875-1.462 5.831-5.79 4.368-9.665zm-13.884 35.719 5.692-14.945 5.64 14.945z"/><path d="m274.562 337.829c-3.549.02-7.979.038-11.646.044v-47.293c0-4.142-3.357-7.5-7.5-7.5s-7.5 3.358-7.5 7.5v54.75c0 3.654 2.634 6.777 6.236 7.393.529.091 14.286.142 20.493.107 4.142-.023 7.481-3.4 7.458-7.542-.023-4.143-3.392-7.485-7.541-7.459z"/><path d="m391.254 337.829c-3.549.02-7.979.038-11.646.044v-47.293c0-4.142-3.357-7.5-7.5-7.5s-7.5 3.358-7.5 7.5v54.75c0 3.654 2.634 6.777 6.236 7.393.529.091.916.157 7.091.157 2.941 0 7.195-.015 13.402-.049 4.142-.023 7.481-3.4 7.458-7.542-.023-4.144-3.4-7.486-7.541-7.46z"/><path d="m158.912 283.08c-4.143 0-7.5 3.358-7.5 7.5v18.958h-22.919v-18.958c0-4.142-3.357-7.5-7.5-7.5s-7.5 3.358-7.5 7.5v54.795c0 4.142 3.357 7.5 7.5 7.5s7.5-3.358 7.5-7.5v-20.837h22.919v20.837c0 4.142 3.357 7.5 7.5 7.5s7.5-3.358 7.5-7.5v-54.795c0-4.142-3.357-7.5-7.5-7.5z"/></g></g></svg>